PathFileType	4	(X/Y/Z)	E:\Qualisys_Data\Carbon_Farble_Plate\Data\Amateur_Runner\S14\T1\S14T1V24_c3d.trc
DataRate	CameraRate	NumFrames	NumMarkers	Units	OrigDataRate	OrigDataStartFrame	OrigNumFrames
200.000000	200.000000	4	39	mm	200.000000	78	314
Frame#	Time	LSHO			RSHO			LICST			RICST			LASIS			LHEEL			RASIS			LTROC			RTROC			SACR			LTH1			LSK4			LTH2			LTH3			RHM5			LSK2			LTH4			RTH1			LTOE			RTH2			RTH3			RTH4			LLEP			RLEP			LSK1			LSK3			RSK1			LHM5			RSK2			LFT1			RSK3			RSK4			LLME			RLME			RTOE			RHEEL			RFT1			RFT2			LFT2			
		X1	Y1	Z1	X2	Y2	Z2	X3	Y3	Z3	X4	Y4	Z4	X5	Y5	Z5	X6	Y6	Z6	X7	Y7	Z7	X8	Y8	Z8	X9	Y9	Z9	X10	Y10	Z10	X11	Y11	Z11	X12	Y12	Z12	X13	Y13	Z13	X14	Y14	Z14	X15	Y15	Z15	X16	Y16	Z16	X17	Y17	Z17	X18	Y18	Z18	X19	Y19	Z19	X20	Y20	Z20	X21	Y21	Z21	X22	Y22	Z22	X23	Y23	Z23	X24	Y24	Z24	X25	Y25	Z25	X26	Y26	Z26	X27	Y27	Z27	X28	Y28	Z28	X29	Y29	Z29	X30	Y30	Z30	X31	Y31	Z31	X32	Y32	Z32	X33	Y33	Z33	X34	Y34	Z34	X35	Y35	Z35	X36	Y36	Z36	X37	Y37	Z37	X38	Y38	Z38	X39	Y39	Z39	

79	0.39	-1258.005493164062	1490.45068359375	-493.4930114746094	-1126.588989257812	1472.409423828125	-237.5243225097656	-1231.843139648438	1032.637084960938	-493.0046997070312	-1171.619506835938	1021.389282226562	-227.5123291015625	-1189.349853515625	979.7694702148438	-469.78515625	-1141.010864257812	151.7807312011719	-380.9184875488281	-1158.2763671875	975.3822631835938	-245.1967010498047	-1316.818481445312	913.2479858398438	-509.6342163085938	-1316.8505859375	957.2748413085938	-178.5782623291016	-1339.806762695312	1039.469482421875	-343.1604919433594	-1121.591796875	728.4253540039062	-502.7174377441406	-1123.452514648438	366.2609252929688	-461.0214233398438	-1185.03173828125	688.5859985351562	-483.2348937988281	-1061.716552734375	652.8825073242188	-477.2242431640625	-1791.73583984375	186.4562377929688	-194.8642730712891	-1119.478515625	464.6609497070312	-476.7830505371094	-1128.424926757812	610.5286254882812	-468.7892150878906	-1294.99755859375	685.5357666015625	-191.4991455078125	-881.058837890625	157.4714965820312	-411.3320617675781	-1362.283203125	722.9423828125	-176.908447265625	-1340.776611328125	598.9251708984375	-215.5557556152344	-1414.508056640625	636.326416015625	-193.7799530029297	-1060.202026367188	578.8114013671875	-472.8722229003906	-1434.517578125	562.4141845703125	-202.9028472900391	-1037.822143554688	463.5356140136719	-473.9623413085938	-1043.05126953125	361.7222900390625	-461.672119140625	-1513.485961914062	462.5512390136719	-196.7295227050781	-948.4859008789062	134.1694641113281	-469.7520446777344	-1568.247192382812	529.5811157226562	-188.8274078369141	-1123.923583984375	130.4719085693359	-354.2685546875	-1597.805908203125	402.2689514160156	-203.0622711181641	-1643.34912109375	469.0399780273438	-198.2181701660156	-1084.876831054688	184.2727203369141	-441.9313049316406	-1759.0458984375	338.5296020507812	-211.8195190429688	-1764.095336914062	123.408576965332	-258.3916015625	-1795.491455078125	381.3876342773438	-263.0005798339844	-1821.518188476562	361.4699096679688	-296.4529724121094	-1820.35498046875	373.9668579101562	-238.5075225830078	-1136.1328125	124.0753173828125	-407.7104797363281
80	0.395	-1238.684448242188	1489.545532226562	-494.4239501953125	-1106.35400390625	1472.363525390625	-238.7575073242188	-1211.39501953125	1031.017944335938	-493.3579406738281	-1151.607788085938	1021.242309570312	-227.9433288574219	-1169.1318359375	977.8834838867188	-468.9472351074219	-1105.205932617188	142.4266967773438	-380.4031677246094	-1138.305786132812	974.748291015625	-245.1192474365234	-1297.572875976562	912.5853881835938	-509.4649963378906	-1297.104614257812	957.0082397460938	-179.3741912841797	-1320.172729492188	1039.111572265625	-343.97509765625	-1104.924194335938	724.5625	-503.3002319335938	-1099.573364257812	358.2003479003906	-460.3399353027344	-1169.12841796875	685.6537475585938	-483.3843383789062	-1046.515502929688	647.4268798828125	-477.7342224121094	-1778.143188476562	196.0276184082031	-194.0686798095703	-1101.102661132812	456.9933471679688	-476.2198791503906	-1114.332397460938	606.6940307617188	-468.5962219238281	-1274.308715820312	685.0765380859375	-191.9656219482422	-847.201416015625	163.1668853759766	-413.1081237792969	-1341.8046875	722.3452758789062	-176.9577941894531	-1320.214965820312	598.5123901367188	-215.9346771240234	-1393.349609375	635.651123046875	-193.5932006835938	-1046.00439453125	573.1903686523438	-472.4462280273438	-1413.521362304688	562.2905883789062	-202.6045684814453	-1019.052612304688	459.2496643066406	-474.1474914550781	-1018.9306640625	357.6166381835938	-461.6582946777344	-1496.395751953125	465.9617614746094	-195.4410247802734	-913.036376953125	135.5950164794922	-470.6830749511719	-1549.92578125	533.802490234375	-189.92041015625	-1087.477905273438	122.1733474731445	-353.9080505371094	-1580.798095703125	407.1372985839844	-202.0347900390625	-1625.258178710938	474.5888366699219	-198.5804901123047	-1051.438842773438	177.5337219238281	-441.8796081542969	-1744.3740234375	347.0168151855469	-212.825439453125	-1750.95654296875	131.3663940429688	-257.0865783691406	-1780.941528320312	389.9599609375	-264.1709289550781	-1807.5888671875	370.3486022949219	-297.9003601074219	-1806.129028320312	383.3021545410156	-239.8197937011719	-1098.9111328125	114.4117584228516	-406.920166015625
81	0.4	-1218.901977539062	1488.308349609375	-495.3408203125	-1086.1640625	1471.995361328125	-240.0165710449219	-1189.9814453125	1029.282592773438	-493.2870483398438	-1131.755981445312	1020.512878417969	-228.0631561279297	-1148.959228515625	975.8783569335938	-468.503662109375	-1070.774658203125	134.0140075683594	-379.8102722167969	-1118.118530273438	973.963623046875	-245.1510620117188	-1277.867065429688	910.8987426757812	-509.2012939453125	-1276.807983398438	956.4210815429688	-179.2938385009766	-1299.667724609375	1038.12255859375	-344.2184448242188	-1088.166870117188	719.9030151367188	-504.3519287109375	-1076.876708984375	350.9736938476562	-459.1858825683594	-1153.37451171875	682.8615112304688	-483.3065795898438	-1031.160888671875	641.6398315429688	-478.7024230957031	-1765.242065429688	205.5281219482422	-194.0103759765625	-1082.5185546875	449.7041625976562	-475.5249633789062	-1100.094116210938	602.6998901367188	-467.5037841796875	-1253.197265625	684.4136962890625	-192.7453918457031	-813.830810546875	168.3705139160156	-415.0165405273438	-1320.002807617188	721.1942138671875	-176.3714904785156	-1299.382934570312	597.9249877929688	-216.2261352539062	-1372.539306640625	634.7159423828125	-193.7331695556641	-1031.787475585938	567.9166259765625	-472.1365051269531	-1393.306884765625	561.6923828125	-203.2382659912109	-1000.216613769531	455.38037109375	-474.0335388183594	-996.33349609375	354.0205993652344	-462.4020080566406	-1478.105102539062	467.8045043945312	-195.7150726318359	-878.3544921875	137.02099609375	-472.2235107421875	-1529.637573242188	536.7532348632812	-190.1169586181641	-1051.754516601562	114.9828948974609	-353.2323608398438	-1565.468505859375	411.7634887695312	-202.8585815429688	-1607.192993164062	480.289794921875	-199.5635986328125	-1019.384826660156	171.9527587890625	-441.5570678710938	-1729.074584960938	355.2117004394531	-213.3360900878906	-1737.928344726562	139.0878448486328	-256.155029296875	-1765.100219726562	398.6514282226562	-265.3947448730469	-1791.618896484375	378.3198852539062	-298.9144897460938	-1790.656860351562	392.1601257324219	-241.1841430664062	-1063.373291015625	105.8811645507812	-405.9827270507812
82	0.405	-1199.42626953125	1487.014282226562	-496.2940979003906	-1066.307373046875	1471.602661132812	-241.4405975341797	-1169.91552734375	1026.896606445312	-492.7518005371094	-1111.788452148438	1020.216186523438	-227.8243103027344	-1128.86865234375	974.0362548828124	-468.0995178222656	-1037.490600585938	127.1678314208984	-379.3599243164062	-1097.79736328125	973.1400146484376	-244.9010467529297	-1257.950073242188	909.5200805664062	-508.9974670410156	-1256.2216796875	955.1024780273438	-179.8175048828125	-1279.452758789062	1037.034423828125	-344.4592590332031	-1072.171264648438	715.1575927734375	-505.8175048828125	-1054.587890625	344.8566284179688	-458.2462768554688	-1137.92724609375	679.8522338867188	-483.2740173339844	-1016.356567382812	635.51708984375	-479.3355407714844	-1752.061889648438	214.2593383789062	-192.7872314453125	-1063.637817382812	443.2485046386719	-474.6533813476562	-1086.1416015625	598.2598266601562	-466.9709777832031	-1232.238037109375	683.3410034179688	-193.0258636474609	-782.9218139648438	173.6497650146484	-416.6075744628906	-1298.76171875	720.2930908203125	-176.4104461669922	-1278.140258789062	597.102783203125	-216.7254028320312	-1351.468383789062	633.9924926757812	-194.0992889404297	-1017.749694824219	562.0137939453125	-471.1661987304688	-1372.421142578125	561.2109985351562	-203.4012145996094	-981.7345581054688	451.6134033203125	-473.9477844238281	-974.1007690429688	350.512451171875	-462.6828002929688	-1459.59521484375	469.611328125	-195.7834320068359	-846.376708984375	139.4048156738281	-473.4664001464844	-1508.961547851562	539.259033203125	-190.5394744873047	-1017.196472167969	108.7370529174805	-352.8769226074219	-1549.0712890625	415.8525085449219	-203.2232818603516	-1587.809204101562	485.09130859375	-200.2984466552734	-988.1817626953124	167.2943725585938	-441.4755859375	-1713.645141601562	363.5940856933594	-214.3801116943359	-1724.591674804688	147.2890625	-254.9544219970703	-1749.151977539062	406.7481384277344	-266.6053466796875	-1775.609497070312	386.9537048339844	-300.3294982910156	-1774.53369140625	400.9700927734375	-242.5469055175781	-1028.707275390625	99.23321533203124	-405.3252258300781
